<svg xmlns="http://www.w3.org/2000/svg" xmlns:xlink="http://www.w3.org/1999/xlink" version="1.1" x="0px" y="0px" viewBox="0 0 100 125" enable-background="new 0 0 100 100" xml:space="preserve"><path fill="#000000" d="M66.426,44.494c-2.529,3.54-2.643,5.191-2.643,5.191l1.869,27.758c0.553,1.328,0.857,2.746,0.857,4.221  C66.51,89.029,59.033,95,49.811,95c-9.224,0-16.701-5.971-16.701-13.336c0-1.387,0.266-2.723,0.758-3.982l1.885-27.996  c0,0-0.113-1.651-2.643-5.191S22.79,30.791,19.821,25.912c-0.744-1.224-2.057-4.028-1.418-5.556  c0.036-0.085,0.084-0.167,0.142-0.247c0.156,7.849,14.066,14.19,31.206,14.19c17.174,0,31.107-6.367,31.209-14.236  c0.072,0.094,0.131,0.192,0.174,0.293c0.639,1.528-0.674,4.331-1.418,5.556C76.746,30.791,68.955,40.954,66.426,44.494z   M80.961,19.121c0,7.562-13.973,13.691-31.211,13.691c-17.236,0-31.211-6.129-31.211-13.691c0-7.56,13.975-13.69,31.211-13.69  C66.988,5.431,80.961,11.561,80.961,19.121z M24.26,21.441c-0.472-0.26-0.986-0.231-1.15,0.064  c-0.164,0.296,0.086,0.748,0.558,1.008c0.471,0.26,0.986,0.231,1.149-0.064C24.979,22.153,24.73,21.702,24.26,21.441z   M50.693,28.201c0-0.338-0.437-0.612-0.975-0.612c-0.539,0-0.975,0.274-0.975,0.612s0.436,0.612,0.975,0.612  C50.257,28.813,50.693,28.539,50.693,28.201z M75.404,15.47c0-5.031-11.484-9.109-25.654-9.109c-14.168,0-25.654,4.079-25.654,9.109  c0,5.03,11.486,9.109,25.654,9.109C63.92,24.579,75.404,20.5,75.404,15.47z M77.389,20.792c-0.162-0.296-0.678-0.325-1.148-0.065  c-0.471,0.261-0.721,0.712-0.559,1.007c0.164,0.296,0.68,0.325,1.15,0.065C77.303,21.539,77.553,21.089,77.389,20.792z"/></svg>