<svg xmlns="http://www.w3.org/2000/svg" xmlns:xlink="http://www.w3.org/1999/xlink" version="1.1" x="0px" y="0px" viewBox="0 0 30 37.5" style="enable-background:new 0 0 30 30;" xml:space="preserve"><g><g><path d="M12.54,0.55v1.14h-2.32c-0.27,0-0.49,0.22-0.49,0.49v6.16c0,0.27,0.22,0.49,0.49,0.49h9.5c0.27,0,0.49-0.22,0.49-0.49    V2.18c0-0.27-0.22-0.49-0.49-0.49H17.4V0.55h-0.5v1.14h-3.86V0.55H12.54z M18.02,7.57h-6.1V6.91h6.1V7.57z M17.41,3.23    c0.5,0,0.91,0.41,0.91,0.91c0,0.5-0.4,0.91-0.91,0.91c-0.5,0-0.91-0.41-0.91-0.91C16.5,3.64,16.91,3.23,17.41,3.23z M13.44,4.14    c0,0.5-0.4,0.91-0.9,0.91c-0.5,0-0.91-0.41-0.91-0.91c0-0.5,0.4-0.91,0.91-0.91C13.04,3.23,13.44,3.64,13.44,4.14z"/><g><rect x="6.46" y="9.45" width="1.88" height="5.3"/><rect x="6.46" y="15.13" width="1.88" height="5.3"/><path d="M8.06,23.92v0.71c0.84-0.27,1.44-1.06,1.44-1.99c0-1.16-0.94-2.09-2.09-2.09c-1.16,0-2.09,0.94-2.09,2.09     c0,0.93,0.6,1.71,1.44,1.99v-0.71c-0.46-0.24-0.78-0.72-0.78-1.27c0-0.79,0.64-1.44,1.44-1.44c0.79,0,1.44,0.64,1.44,1.44     C8.84,23.21,8.52,23.68,8.06,23.92z"/></g><g><rect x="21.65" y="9.45" width="1.88" height="5.3"/><rect x="21.65" y="15.13" width="1.88" height="5.3"/><path d="M23.25,23.92v0.71c0.83-0.27,1.44-1.06,1.44-1.99c0-1.16-0.94-2.09-2.09-2.09c-1.16,0-2.09,0.94-2.09,2.09     c0,0.93,0.6,1.71,1.44,1.99v-0.71c-0.46-0.24-0.78-0.72-0.78-1.27c0-0.79,0.64-1.44,1.44-1.44c0.79,0,1.44,0.64,1.44,1.44     C24.03,23.21,23.71,23.68,23.25,23.92z"/></g><path d="M9.18,9.16c-0.27,0-0.49,0.22-0.49,0.49v8.74c0,0.27,0.22,0.49,0.49,0.49h11.57c0.27,0,0.49-0.22,0.49-0.49V9.65    c0-0.27-0.22-0.49-0.49-0.49H9.18z M18.91,15.96c0,0.4-0.33,0.73-0.73,0.73h-2.29l1.56-1.56c0.18-0.18,0.18-0.47,0-0.65    c-0.18-0.18-0.47-0.18-0.65,0l-2.2,2.2h-2.82c-0.41,0-0.73-0.33-0.73-0.73V13.4c0-0.4,0.33-0.73,0.73-0.73h6.4    c0.4,0,0.73,0.33,0.73,0.73V15.96z"/></g><g><g><rect x="11.15" y="19.42" width="3.11" height="4.85"/></g><g><rect x="11.15" y="24.78" width="3.11" height="2.3"/></g><path d="M10.34,27.39c-0.49,0-0.89,0.46-0.89,1.03c0,0.57,0.4,1.03,0.89,1.03h3.52c0.49,0,0.89-0.46,0.89-1.03    c0-0.57-0.4-1.03-0.89-1.03H10.34z"/><g><rect x="15.74" y="19.42" width="3.11" height="4.85"/></g><g><rect x="15.74" y="24.78" width="3.11" height="2.3"/></g><path d="M16.13,27.39c-0.49,0-0.89,0.46-0.89,1.03c0,0.57,0.4,1.03,0.89,1.03h3.52c0.49,0,0.89-0.46,0.89-1.03    c0-0.57-0.4-1.03-0.89-1.03H16.13z"/></g></g></svg>