<svg xmlns="http://www.w3.org/2000/svg" data-name="Layer 1" viewBox="0 0 64 80" x="0px" y="0px"><title>x</title><path d="M49.65,12.44A26.32,26.32,0,1,0,58.36,32,26.37,26.37,0,0,0,49.65,12.44ZM42.27,54.1l-.53-1.24a.88.88,0,1,0-1.62.68l.53,1.26a24.09,24.09,0,0,1-7.77,1.55V53.58a.88.88,0,1,0-1.76,0v2.77a24.31,24.31,0,0,1-7.93-1.61l.54-1.25a.88.88,0,1,0-1.61-.7L21.58,54a24.59,24.59,0,0,1-5.92-3.93l-.27-.25,1-1a.88.88,0,1,0-1.24-1.24l-1,1a24.28,24.28,0,0,1-4.26-6.33l1.26-.54a.88.88,0,1,0-.68-1.62l-1.27.54a24.44,24.44,0,0,1-1.57-7.78h2.8a.88.88,0,1,0,0-1.76H7.62a24.22,24.22,0,0,1,1.63-7.93l1.26.54a.89.89,0,0,0,.35.08.88.88,0,0,0,.35-1.69L10,21.58a24,24,0,0,1,4.19-6.19l1,1a.88.88,0,0,0,.62.25.86.86,0,0,0,.62-.25.88.88,0,0,0,0-1.25l-1-1a3.31,3.31,0,0,1,.27-.26,24.42,24.42,0,0,1,6.07-4l.53,1.24a.87.87,0,0,0,.81.54.83.83,0,0,0,.34-.07.87.87,0,0,0,.47-1.15L23.35,9.2a24.09,24.09,0,0,1,7.77-1.55v2.77a.88.88,0,0,0,1.76,0V7.65a24.31,24.31,0,0,1,7.93,1.61l-.54,1.25a.87.87,0,0,0,.46,1.16.83.83,0,0,0,.34.07.87.87,0,0,0,.81-.53L42.42,10a24.59,24.59,0,0,1,5.92,3.93l.27.26-1,1a.88.88,0,0,0,.63,1.5.88.88,0,0,0,.62-.25l1-1a24.45,24.45,0,0,1,4.26,6.33l-1.26.54A.88.88,0,0,0,53.2,24a.83.83,0,0,0,.34-.07l1.27-.54a24.44,24.44,0,0,1,1.57,7.78h-2.8a.88.88,0,0,0,0,1.76h2.8a24.48,24.48,0,0,1-1.63,7.93l-1.26-.54a.88.88,0,1,0-.7,1.61l1.26.54a24.48,24.48,0,0,1-4.19,6.19l-1-1a.88.88,0,1,0-1.25,1.24l1,1c-.09.08-.17.17-.27.25A24.15,24.15,0,0,1,42.27,54.1Z"/><path d="M52.73,9A30.93,30.93,0,1,0,63,32,31,31,0,0,0,52.73,9Zm-1.3,44.5A29,29,0,1,1,61,32,29,29,0,0,1,51.43,53.52Z"/><path d="M41.9,31.12H35.42a.79.79,0,0,0-.22.05,3.31,3.31,0,0,0-2.36-2.37,1.43,1.43,0,0,0,0-.22V17.07a.88.88,0,1,0-1.76,0V28.58a1.43,1.43,0,0,0,0,.22A3.3,3.3,0,0,0,31,35.16v1.55a1,1,0,1,0,2,0V35.16a3.32,3.32,0,0,0,2.22-2.32,1.43,1.43,0,0,0,.22,0H41.9a.88.88,0,1,0,0-1.76ZM32,33.56A1.56,1.56,0,1,1,33.56,32,1.56,1.56,0,0,1,32,33.56Z"/></svg>