<svg xmlns="http://www.w3.org/2000/svg" data-name="Layer 53" viewBox="0 0 100 125" x="0px" y="0px"><path d="M24.81,35A4.91,4.91,0,1,0,15,35V47h9.81Z"/><path d="M39.91,25a4.91,4.91,0,1,0-9.82,0V47h9.82Z"/><path d="M54.91,15a4.91,4.91,0,1,0-9.82,0V47h9.82Z"/><path d="M85,35a4.91,4.91,0,1,0-9.81,0V47H85Z"/><path d="M69.86,25a4.91,4.91,0,1,0-9.81,0V47h9.81Z"/><path d="M8.6,90.07H91.4a3.6,3.6,0,0,0,3.6-3.6V52.13a3.6,3.6,0,0,0-3.6-3.59H8.6A3.6,3.6,0,0,0,5,52.13V86.47A3.6,3.6,0,0,0,8.6,90.07Zm1.69-34.43a.75.75,0,0,1,.75-.75H89a.75.75,0,0,1,.75.75V84.11a.75.75,0,0,1-.75.75H11a.75.75,0,0,1-.75-.75Z"/><path d="M21.42,69.86h-1.9a.76.76,0,0,1-.75-.75V56.39h-7v27h9.63Z"/><path d="M22.92,83.36h9.63V69.86H30.66a.75.75,0,0,1-.75-.75V56.39H25.56V69.11a.75.75,0,0,1-.75.75H22.92Z"/><path d="M34.05,83.36h9.63v-27h-7V69.11a.75.75,0,0,1-.75.75H34.05Z"/><path d="M54.82,69.86h-1.9a.76.76,0,0,1-.75-.75V56.39h-7v27h9.64Z"/><path d="M56.32,83.36H66V69.86H64.06a.75.75,0,0,1-.75-.75V56.39H59V69.11a.76.76,0,0,1-.75.75H56.32Z"/><path d="M67.45,83.36h9.63V69.86H75.19a.75.75,0,0,1-.75-.75V56.39H70.09V69.11a.75.75,0,0,1-.75.75H67.45Z"/><path d="M78.58,83.36h9.63v-27h-7V69.11a.76.76,0,0,1-.75.75h-1.9Z"/><polygon points="24.06 56.39 22.92 56.39 21.42 56.39 20.27 56.39 20.27 68.36 24.06 68.36 24.06 56.39"/><polygon points="35.2 56.39 34.05 56.39 32.55 56.39 31.41 56.39 31.41 68.36 35.2 68.36 35.2 56.39"/><polygon points="68.59 56.39 67.45 56.39 65.95 56.39 64.81 56.39 64.81 68.36 68.59 68.36 68.59 56.39"/><polygon points="57.46 56.39 56.32 56.39 54.82 56.39 53.67 56.39 53.67 68.36 57.46 68.36 57.46 56.39"/><polygon points="79.73 56.39 78.58 56.39 77.08 56.39 75.94 56.39 75.94 68.36 79.73 68.36 79.73 56.39"/></svg>