<svg xmlns="http://www.w3.org/2000/svg" xmlns:xlink="http://www.w3.org/1999/xlink" version="1.1" x="0px" y="0px" viewBox="0 0 64 80" enable-background="new 0 0 64 64" xml:space="preserve"><path d="M55.158,26.254H8.841c-0.414,0-0.75,0.336-0.75,0.75v5.763v21.557v5.763c0,0.414,0.336,0.75,0.75,0.75h46.317  c0.414,0,0.75-0.336,0.75-0.75v-5.763V32.767v-5.763C55.908,26.59,55.572,26.254,55.158,26.254z M54.408,53.574H48.27l6.139-17.092  V53.574z M53.879,33.518l-6.676,18.587l-6.674-18.587H53.879z M38.74,33.518l-6.674,18.587L25.39,33.518H38.74z M23.257,33.518  l-6.675,18.587L9.907,33.518H23.257z M9.591,37.075l5.925,16.499H9.591V37.075z M24.324,34.986L31,53.574H17.649L24.324,34.986z   M39.635,35.466l6.502,18.108H33.133L39.635,35.466z M9.591,27.754h44.817v4.263H9.591V27.754z M54.408,59.337H9.591v-4.263h44.817  V59.337z"/><path d="M62.731,3.511c-0.223-0.349-0.685-0.455-1.035-0.231L41.832,15.881c-0.627-0.589-1.502-0.923-2.508-0.923  c-0.956,0-1.966,0.307-2.844,0.863c-2.136,1.356-2.994,3.849-1.912,5.557c0.604,0.953,1.697,1.5,2.997,1.5  c0.956,0,1.966-0.307,2.845-0.863c1.865-1.185,2.754-3.234,2.231-4.871L62.499,4.546C62.85,4.325,62.953,3.861,62.731,3.511z   M39.606,20.748c-1.379,0.874-3.167,0.779-3.771-0.173c-0.629-0.992,0.035-2.589,1.45-3.487c0.64-0.406,1.363-0.63,2.039-0.63  c0.775,0,1.406,0.292,1.73,0.802c0.001,0,0.001,0.001,0.001,0.002s0.001,0.001,0.002,0.001C41.685,18.254,41.02,19.85,39.606,20.748  z"/><path d="M23.588,22.015c0.878,0.556,1.888,0.863,2.844,0.863c1.3,0,2.393-0.546,2.998-1.5c1.082-1.707,0.225-4.2-1.912-5.557  c-0.878-0.557-1.888-0.863-2.844-0.863c-1.006,0-1.881,0.333-2.509,0.923L2.305,3.28C1.956,3.059,1.492,3.161,1.27,3.511  c-0.222,0.35-0.118,0.813,0.231,1.035l19.855,12.598C20.833,18.781,21.722,20.83,23.588,22.015z M24.674,16.458  c0.675,0,1.4,0.224,2.04,0.63c1.415,0.898,2.078,2.495,1.45,3.486c-0.324,0.511-0.955,0.804-1.731,0.804  c-0.675,0-1.4-0.224-2.041-0.63c-1.415-0.898-2.079-2.495-1.45-3.486C23.266,16.751,23.897,16.458,24.674,16.458z"/></svg>