<svg xmlns="http://www.w3.org/2000/svg" xmlns:xlink="http://www.w3.org/1999/xlink" version="1.1" x="0px" y="0px" viewBox="0 0 64 80" style="enable-background:new 0 0 64 64;" xml:space="preserve"><g><polygon points="24.149,44.437 21.77,43.644 17.414,48 19,49.586  "/><rect x="14.879" y="49.879" transform="matrix(0.7071 -0.7071 0.7071 0.7071 -31.3762 26.2513)" width="2.243" height="2.243"/><path d="M10,49.414l-5.581,5.581c0.017,0.017,0.028,0.038,0.045,0.055L6,56.586L11.586,51L10,49.414z"/><path d="M21,30.764c0-1.405,0.547-2.726,1.54-3.719l2.132-2.131C24.884,24.702,25,24.421,25,24.121C25,23.503,24.497,23,23.879,23   c-2.932,0-5.477,2.086-6.051,4.959l-1.088,5.438c-0.539,2.692-2.615,4.831-5.29,5.448l-3.024,0.698C5.231,40.281,3,43.085,3,46.364   v5.15c0,0.607,0.121,1.193,0.327,1.745l19.13-19.13C21.539,33.271,21,32.068,21,30.764z"/><polygon points="43,16.414 18.851,40.563 21.23,41.356 44.586,18  "/><path d="M13,52.414L7.414,58l1.535,1.536c0.017,0.017,0.038,0.029,0.055,0.046L14.586,54L13,52.414z"/><polygon points="23.351,42.063 25.73,42.856 47.586,21 46,19.414  "/><polygon points="19.649,42.937 17.27,42.144 14.414,45 16,46.586  "/><path d="M58,3h-0.343c-0.802,0-1.556,0.312-2.122,0.878L53.414,6l-2.707-2.707l-1.414,1.414L52,7.414L50.414,9l-2.707-2.707   l-1.414,1.414L49,10.414L47.414,12l-2.707-2.707l-1.414,1.414L46,13.414L44.414,15l4.853,4.853   c2.925-0.995,5.034-3.613,5.375-6.686l0.167-1.498C54.978,10.147,56.259,9,57.79,9H58c1.654,0,3-1.346,3-3S59.654,3,58,3z"/><path d="M39.879,39c-0.295,0-0.584,0.12-0.793,0.328l-2.318,2.318C35.908,42.507,34.717,43,33.5,43s-2.408-0.493-3.268-1.354   L30,41.414L10.741,60.673C11.293,60.879,11.879,61,12.485,61h7.11c3.633,0,6.698-2.837,6.979-6.459l0.032-0.422   c0.271-3.486,2.737-6.367,6.139-7.169l3.261-0.77C38.914,45.597,41,43.053,41,40.122C41,39.503,40.497,39,39.879,39z M17,59   c-0.552,0-1-0.448-1-1c0-0.552,0.448-1,1-1c0.552,0,1,0.448,1,1C18,58.552,17.552,59,17,59z M21,58c-0.552,0-1-0.448-1-1   c0-0.552,0.448-1,1-1c0.552,0,1,0.448,1,1C22,57.552,21.552,58,21,58z M23,54c-0.552,0-1-0.448-1-1c0-0.552,0.448-1,1-1   c0.552,0,1,0.448,1,1C24,53.552,23.552,54,23,54z"/><rect x="11.879" y="46.878" transform="matrix(0.7071 -0.7071 0.7071 0.7071 -30.1335 23.2512)" width="2.243" height="2.243"/></g></svg>