<svg xmlns="http://www.w3.org/2000/svg" viewBox="0 0 100 125" x="0px" y="0px"><path d="M95,6.55A4.08,4.08,0,0,0,94.7,6L94.64,6a2.27,2.27,0,0,0-.31-.31l-.09-.08a1.7,1.7,0,0,0-.35-.19l-.08,0a1.39,1.39,0,0,0-.46-.08h0a1.45,1.45,0,0,0-.35,0h-.07l-.37.12-.08,0a4.08,4.08,0,0,0-.46.24c-1.39.84-13.81,8-13.81,8-.91.54-1.53.88-1.55,1.55s.45,1.49.22,1.69l-33.23,34a1,1,0,0,1-.74.35,1.45,1.45,0,0,1-.9-.41,4.61,4.61,0,0,1-.79-2,6.88,6.88,0,0,0-2.13-3.58,8.91,8.91,0,0,0-1.78-1.4l0,0-.45-.22h0a4.84,4.84,0,0,0-.49-.18h-.06a3.29,3.29,0,0,0-.43-.09l-.13,0a3.15,3.15,0,0,0-.44,0h-.08a4.22,4.22,0,0,0-.49,0,1,1,0,0,0-.17,0,2.17,2.17,0,0,0-.35.07l-.22.06-.33.11-.23.09-.4.18-.16.08c-2.72,1.44-4.27,4.2-5.51,7.51s-2.38,4.83-5.14,6.31-8,3.14-10.31,4.45a15.81,15.81,0,0,0-6.21,6.9c-1.48,3.1-1.07,7.27,1.66,10.93s9.24,9.48,12.24,12.1a12.24,12.24,0,0,0,1.07.83l.24.15c.3.2.61.38.92.55a2.53,2.53,0,0,0,.23.12,10.16,10.16,0,0,0,1.17.52l.1,0c.36.12.72.23,1.08.32l.33.07c.32.07.64.12,1,.16l.26,0c.37,0,.74.06,1.11.06h.08c.33,0,.65,0,1-.06l.43,0a11.62,11.62,0,0,0,1.41-.26c3.62-.9,5.31-2.69,7.38-5.52s3.31-7.07,3.88-9.16A17,17,0,0,1,44,74.22c1.06-1.45,4.34-2.44,6-3.37a14.13,14.13,0,0,0,4.87-3.75,7,7,0,0,0,1.07-2,3.14,3.14,0,0,0-.14-3,2.24,2.24,0,0,0-.74-.54l-.08,0a2.07,2.07,0,0,0-.33-.1l-.16,0-.28,0h0l-.24,0h-.18l-.37.09-.1,0a4.34,4.34,0,0,0-1,.47c-.47.28-1,.56-1.46.8l-.1.05-.38.16-.21.08-.36.12-.27.08-.35.09-.34.06-.35.05-.38,0-.37,0c-.2,0-.4,0-.62,0-2.33-.1-3.78-2.95-2.2-4.66L80.63,20.09a13,13,0,0,1,3.63-3.18c1.74-.78,3.17-1.17,4.62-2.53s1.74-3.13,2.28-3.8,1.81-.49,2.59-.81S95.71,7.81,95,6.55ZM47,65.21h.46a10.21,10.21,0,0,0,5.7-1.81,2,2,0,0,1,1-.37.39.39,0,0,1,.32.13,2.56,2.56,0,0,1-.18,1.38,5.44,5.44,0,0,1-.82,1.53,12.6,12.6,0,0,1-4.32,3.28c-.45.25-1.08.52-1.75.81-1.8.78-3.84,1.67-4.84,3a18.66,18.66,0,0,0-2.8,5.42l-1-1L36,75l-2.12-1.94,1-1.06L27.3,64.7l-1,1s-2.09-1.92-2.39-2.31-.1-.74.32-1.41a22.63,22.63,0,0,1,5.24-5.51,19,19,0,0,1,7-3.72,8.28,8.28,0,0,1,3.73-.41,3,3,0,0,1,1.32.65l-3.7,3.86a.5.5,0,0,0-.05.71l3.94,3.75c.31.28.48.29.68.09l.23-.23a5.23,5.23,0,0,0,.29,1.06A4.75,4.75,0,0,0,47,65.21Z"/></svg>