<svg xmlns="http://www.w3.org/2000/svg" xmlns:xlink="http://www.w3.org/1999/xlink" version="1.1" x="0px" y="0px" viewBox="0 0 128 160" style="enable-background:new 0 0 128 128;" xml:space="preserve"><g><g><g><g><path d="M64,30.7c-12.9,0-25.1-0.9-34.2-2.5c-13.9-2.4-15.7-5.5-15.7-7.8c0-2.3,1.7-5.3,14.9-7.7c8.6-1.6,20.2-2.5,32.6-2.6      l4.6,0c0,0,0,0,0,0c12.4,0.1,24,1,32.7,2.6c13.2,2.4,14.9,5.4,14.9,7.7c0,2.4-1.8,5.4-15.7,7.8C89.1,29.8,76.9,30.7,64,30.7z       M18.2,20.4c1.8,2.3,18.1,6.3,45.8,6.3s44-4,45.8-6.3c-1.7-2.1-16-6.1-43.6-6.3l-4.5,0C34.1,14.3,19.9,18.3,18.2,20.4z"/><path d="M64,25.3c-8.5,0-18.7-0.8-18.7-4.9c0-1.2,0-4.4,16-4.9l4.8,0c0,0,0,0,0,0c16.4,0.4,16.4,3.8,16.4,4.9      C82.7,24.4,72.5,25.3,64,25.3z M52.2,20.4c2.6,0.5,6.5,0.9,11.8,0.9c5.3,0,9.2-0.4,11.8-0.9c-2.1-0.4-5.3-0.8-9.6-0.9l-4.8,0      C57.3,19.7,54.2,20,52.2,20.4z"/><g><path d="M64,41.4c-12.9,0-25.1-0.9-34.3-2.5C15.8,36.6,14,33.5,14,31.1c0-2.7,6.1-6.5,8.8-8c1-0.5,2.2-0.2,2.7,0.7       c0.5,1,0.2,2.2-0.7,2.7c-3,1.7-5.6,3.7-6.5,4.7c2.5,2.4,18.6,6.1,45.8,6.1c27.4,0,43.6-3.9,45.8-6.2c-0.8-1-3.3-3.1-6.1-4.7       c-1-0.5-1.3-1.8-0.8-2.7c0.5-1,1.8-1.3,2.7-0.8c0.1,0,8.3,4.8,8.3,8.1c0,2.4-1.8,5.4-15.7,7.9C89.1,40.6,76.9,41.4,64,41.4z        M17.9,31.7L17.9,31.7L17.9,31.7z"/></g></g><path d="M63.8,18.9C63.8,18.9,63.8,18.9,63.8,18.9c-1.1,0-2-0.9-2-2L62,4c0-1.1,0.9-2,2-2c1.1,0,2,0.9,2,2l-0.2,12.9     C65.8,18,64.9,18.9,63.8,18.9z"/></g><g><path d="M64,119.3c-1.1,0-2-0.9-2-2l-0.1-49.7c0-1.1,0.9-2,2-2c0,0,0,0,0,0c1.1,0,2,0.9,2,2l0.1,49.7     C66,118.4,65.1,119.3,64,119.3C64,119.3,64,119.3,64,119.3z"/><path d="M63.8,57.9c-1.1,0-2-0.9-2-2l-0.1-16.5c0-1.1,0.9-2,2-2c0,0,0,0,0,0c1.1,0,2,0.9,2,2l0.1,16.5C65.8,57,65,57.9,63.8,57.9     C63.8,57.9,63.8,57.9,63.8,57.9z"/><path d="M86.9,126c-0.7,0-1.3-0.3-1.7-0.9L63.8,91.4l-21,33.6c-0.6,0.9-1.8,1.2-2.8,0.6c-0.9-0.6-1.2-1.8-0.6-2.8l22.7-36.3     c0.4-0.6,1-0.9,1.7-0.9c0,0,0,0,0,0c0.7,0,1.3,0.3,1.7,0.9l23.1,36.4c0.6,0.9,0.3,2.2-0.6,2.8C87.6,125.9,87.3,126,86.9,126z"/></g><g><path d="M65,69.5h-2.4c-3.1,0-5.7-2.6-5.7-5.7v-4c0-3.1,2.6-5.7,5.7-5.7H65c3.1,0,5.7,2.6,5.7,5.7v4C70.7,67,68.1,69.5,65,69.5z      M62.6,58.1c-0.9,0-1.7,0.8-1.7,1.7v4c0,0.9,0.8,1.7,1.7,1.7H65c0.9,0,1.7-0.8,1.7-1.7v-4c0-0.9-0.8-1.7-1.7-1.7H62.6z"/><path d="M74.4,63.6h-5.6c-1.1,0-2-0.9-2-2s0.9-2,2-2h5.6c1.1,0,2,0.9,2,2S75.5,63.6,74.4,63.6z"/></g></g></g></svg>